<?xml version="1.0" encoding="UTF-8"?>
<svg width="18px" height="16px" viewBox="0 0 18 16" version="1.1" xmlns="http://www.w3.org/2000/svg" xmlns:xlink="http://www.w3.org/1999/xlink">
    <!-- Generator: Sketch 61.2 (89653) - https://sketch.com -->
    <title>兑换 按钮</title>
    <desc>Created with Sketch.</desc>
    <g id="页面-1" stroke="none" stroke-width="1" fill="none" fill-rule="evenodd">
        <path d="M14.51575,11.0709931 C15.63625,11.0709931 16.4935,10.2303153 16.4935,9.13147658 L16.4935,8.64650551 C16.4935,8.2581609 16.75675,8 17.15275,8 C17.54875,8 17.812,8.2581609 17.812,8.64650551 L17.812,9.13147658 C17.812,10.9430159 16.36075,12.3640041 14.51575,12.3640041 L1.9125,12.3640041 L4.3515,14.7558538 C4.61475,15.0140147 4.61475,15.4023593 4.3515,15.6605203 C4.08825,15.9186812 3.69225,15.9186812 3.429,15.6605203 L0.198,12.4941878 C0.06525,12.3640041 0,12.1720383 0,12.0418546 C0,11.8476823 0.06525,11.7174986 0.198,11.5895214 L3.429,8.42098247 C3.69225,8.16282157 4.08825,8.16282157 4.3515,8.42098247 C4.61475,8.67914337 4.61475,9.06748798 4.3515,9.32564888 L2.439,11.0709931 L14.51575,11.0709931 Z M16.02,4.26682603 L3.29625,4.26682603 C2.17575,4.26682603 1.3185,5.10750384 1.3185,6.20634255 L1.3185,6.69131362 C1.3185,7.07965822 1.05525,7.33781912 0.65925,7.33781912 C0.26325,7.33781912 0,7.07965822 0,6.69131362 L0,6.20634255 C0,4.39480322 1.45125,2.97381501 3.29625,2.97381501 L15.561,2.97381501 L13.6485,1.09828709 C13.38525,0.840126184 13.38525,0.451781579 13.6485,0.193620677 C13.91175,-0.0645402256 14.30775,-0.0645402256 14.571,0.193620677 L17.802,3.42614821 C17.93475,3.55633192 18,3.75050422 18,3.87848142 C18,4.07265372 17.93475,4.20063092 17.802,4.33081462 L14.571,7.49935356 C14.30775,7.75751447 13.91175,7.75751447 13.6485,7.49935356 C13.38525,7.24119266 13.38525,6.85284806 13.6485,6.59468715 L16.02,4.26682603 Z" id="兑换-按钮" fill="#FFFFFF" fill-rule="nonzero"></path>
    </g>
</svg>