<?xml version="1.0" encoding="UTF-8"?>
<svg width="13px" height="16px" viewBox="0 0 13 16" version="1.1" xmlns="http://www.w3.org/2000/svg" xmlns:xlink="http://www.w3.org/1999/xlink">
    <!-- Generator: Sketch 61.2 (89653) - https://sketch.com -->
    <title>复制</title>
    <desc>Created with Sketch.</desc>
    <g id="页面-1" stroke="none" stroke-width="1" fill="none" fill-rule="evenodd">
        <path d="M9.66666667,0.666666667 L1.66666667,0.666666667 C0.933333333,0.666666667 0.333333333,1.26666667 0.333333333,2 L0.333333333,11.3333333 L1.66666667,11.3333333 L1.66666667,2 L9.66666667,2 L9.66666667,0.666666667 Z M9,3.33333333 L4.33333333,3.33333333 C3.6,3.33333333 3.00666667,3.93333333 3.00666667,4.66666667 L3,14 C3,14.7333333 3.59333333,15.3333333 4.32666667,15.3333333 L11.6666667,15.3333333 C12.4,15.3333333 13,14.7333333 13,14 L13,7.33333333 L9,3.33333333 Z M4.33333333,14 L4.33333333,4.66666667 L8.33333333,4.66666667 L8.33333333,8 L11.6666667,8 L11.6666667,14 L4.33333333,14 Z" id="复制" fill="#AFB1B4" fill-rule="nonzero"></path>
    </g>
</svg>