<?xml version="1.0" encoding="UTF-8"?>
<svg width="38px" height="24px" viewBox="0 0 38 24" version="1.1" xmlns="http://www.w3.org/2000/svg" xmlns:xlink="http://www.w3.org/1999/xlink">
    <!-- Generator: Sketch 61.2 (89653) - https://sketch.com -->
    <title>内容为空</title>
    <desc>Created with Sketch.</desc>
    <g id="页面-1" stroke="none" stroke-width="1" fill="none" fill-rule="evenodd">
        <g id="内容为空" transform="translate(-9.000000, -16.000000)" fill-rule="nonzero">
            <rect id="矩形备份-30" x="0" y="0" width="56" height="56"></rect>
            <path d="M46.145,26.5200314 C46.62,27.3495679 47,28.7824038 47,29.7250589 L47,38.2843676 C47,39.2270228 46.221,40 45.271,40 L10.729,40 C9.779,40 9,39.2270228 9,38.2843676 L9,29.7062058 C9,28.7635507 9.38,27.3307148 9.855,26.5011783 L15.042,17.4893951 C15.517,16.6598586 16.676,16 17.626,16 L38.355,16 C39.305,16 40.464,16.6598586 40.939,17.4893951 L46.145,26.5200314 Z M16.543,18.3377848 L11.356,27.3684211 C11.318,27.4438335 11.261,27.5569521 11.204,27.7077769 C11.185,27.72663 11.185,27.7643362 11.185,27.7831893 C11.185,27.8963079 11.28,27.9905734 11.394,27.9905734 L22.452,27.9905734 C22.87,27.9905734 23.231,28.2922231 23.307,28.7069914 C23.649,30.9882168 25.682,32.7038492 28,32.7038492 C30.318,32.7038492 32.351,30.9882168 32.693,28.7069914 C32.75,28.2922231 33.13,27.9905734 33.548,27.9905734 L44.606,27.9905734 C44.625,27.9905734 44.663,27.9905734 44.682,27.9717203 C44.796,27.9340141 44.853,27.8020424 44.796,27.6889238 C44.739,27.538099 44.682,27.4249804 44.644,27.3495679 L39.457,18.3377848 C39.286,18.0549882 38.697,17.7156324 38.374,17.7156324 L17.645,17.7156324 C17.303,17.7156324 16.714,18.0549882 16.543,18.3377848 Z" fill="#E8E9EA"></path>
        </g>
    </g>
</svg>