<?xml version="1.0" encoding="UTF-8"?>
<svg width="50px" height="51px" viewBox="0 0 50 51" version="1.1" xmlns="http://www.w3.org/2000/svg" xmlns:xlink="http://www.w3.org/1999/xlink">
    <!-- Generator: Sketch 61.2 (89653) - https://sketch.com -->
    <title>ETH余额</title>
    <desc>Created with Sketch.</desc>
    <g id="页面-1" stroke="none" stroke-width="1" fill="none" fill-rule="evenodd">
        <path d="M23.6184928,0.825169953 L23.7093219,0.961918746 L29.852,11.074 L36,11.0742019 C40.418278,11.0742019 44,14.6559239 44,19.0742019 L44,21.0742019 L44.00016,21.144552 C46.3912772,22.5278125 48,25.1131385 48,28.0742019 L48.0009007,30.2452261 C49.1656226,30.6573168 50,31.7683197 50,33.0742019 L50,37.0742019 C50,38.3800841 49.1656226,39.4910871 48.0009007,39.9031777 L48,42.0742019 C48,46.4924799 44.418278,50.0742019 40,50.0742019 L8,50.0742019 C3.581722,50.0742019 0,46.4924799 0,42.0742019 L0,19.0742019 C0,14.6559239 3.581722,11.0742019 8,11.0742019 L14.147,11.074 L20.2906781,0.961918746 C20.4239502,0.742532365 20.5978851,0.551374658 20.8025354,0.398392886 L20.9616269,0.290969971 L21.10526,0.211473584 C21.9785215,-0.226525862 23.0453807,0.0339862673 23.6184928,0.825169953 Z M40,22.0742019 L2.08292784,22.0740195 C2.08298315,22.0743493 2.0830385,22.074679 2.08309386,22.0750088 L2,22.075 L2,42.0742019 C2,45.3125988 4.56557489,47.9517737 7.77506174,48.0700634 L8,48.0742019 L40,48.0742019 C43.2383969,48.0742019 45.8775718,45.508627 45.9958615,42.2991402 L46,42.0742019 L46,40.074 L39,40.0742019 C36.2385763,40.0742019 34,37.8356257 34,35.0742019 C34,32.3127782 36.2385763,30.0742019 39,30.0742019 L46,30.074 L46,28.0742019 C46,24.835805 43.4344251,22.1966301 40.2249383,22.0783404 L40,22.0742019 Z M47,32.0742019 L39,32.0742019 C37.3431458,32.0742019 36,33.4173477 36,35.0742019 C36,36.6718828 37.24892,37.9778628 38.8237272,38.0691092 L39,38.0742019 L47,38.0742019 C47.5128358,38.0742019 47.9355072,37.6881617 47.9932723,37.190823 L48,37.0742019 L48,33.0742019 C48,32.5613661 47.6139598,32.1386947 47.1166211,32.0809296 L47,32.0742019 Z M42,34.0742019 C42.5522847,34.0742019 43,34.5219172 43,35.0742019 C43,35.6264867 42.5522847,36.0742019 42,36.0742019 C41.4477153,36.0742019 41,35.6264867 41,35.0742019 C41,34.5219172 41.4477153,34.0742019 42,34.0742019 Z M36,13.0742019 L31.067,13.074 L34.5001148,18.7252239 C34.75915,19.1516359 34.9486265,19.6064311 35.0690379,20.0742128 L40,20.0742019 C40.6907281,20.0742019 41.3610104,20.1617406 42.0003581,20.3263291 L42,19.0742019 C42,15.835805 39.4344251,13.1966301 36.2249383,13.0783404 L36,13.0742019 Z M12.932,13.074 L8,13.0742019 C4.76160306,13.0742019 2.12242824,15.6397768 2.00413847,18.8492636 L2,19.0742019 L2,20.074 L8.9309621,20.0742128 C9.02859295,19.6949304 9.17162818,19.3241854 9.36033094,18.970185 L9.49988524,18.7252239 L12.932,13.074 Z M22,13.3242019 L13,20.074 L31,20.074 L22,13.3242019 Z M22,2.00029185 L12.153,18.209 L21.4,11.2742019 L21.5104,11.2022019 C21.852,11.0102019 22.28,11.0342019 22.6,11.2742019 L22.6,11.2742019 L31.846,18.208 L22,2.00029185 Z" id="ETH余额" fill="#FFFFFF" fill-rule="nonzero"></path>
    </g>
</svg>