<?xml version="1.0" encoding="UTF-8"?>
<svg width="50px" height="51px" viewBox="0 0 50 51" version="1.1" xmlns="http://www.w3.org/2000/svg" xmlns:xlink="http://www.w3.org/1999/xlink">
    <!-- Generator: Sketch 61.2 (89653) - https://sketch.com -->
    <title>poolETH 余额</title>
    <desc>Created with Sketch.</desc>
    <g id="页面-1" stroke="none" stroke-width="1" fill="none" fill-rule="evenodd">
        <path d="M23.5,0 C28.7467051,0 33,4.25329488 33,9.5 C33,10.0365 32.9555275,10.5626128 32.8700679,11.0748531 L36,11.0742019 C40.418278,11.0742019 44,14.6559239 44,19.0742019 L44.00016,21.144552 C46.3912772,22.5278125 48,25.1131385 48,28.0742019 L48.0009007,30.2452261 C49.1656226,30.6573168 50,31.7683197 50,33.0742019 L50,37.0742019 C50,38.3800841 49.1656226,39.4910871 48.0009007,39.9031777 L48,42.0742019 C48,46.4924799 44.418278,50.0742019 40,50.0742019 L8,50.0742019 C3.581722,50.0742019 0,46.4924799 0,42.0742019 L0,19.0742019 C0,14.6559239 3.581722,11.0742019 8,11.0742019 L13,11.074 L13,0 L23.5,0 Z M40,22.0742019 L2,22.0742019 L2,42.0742019 C2,45.3125988 4.56557489,47.9517737 7.77506174,48.0700634 L8,48.0742019 L40,48.0742019 C43.2383969,48.0742019 45.8775718,45.508627 45.9958615,42.2991402 L46,42.0742019 L46,40.0741459 L39,40.0742019 C36.2385763,40.0742019 34,37.8356257 34,35.0742019 C34,32.3127782 36.2385763,30.0742019 39,30.0742019 L46,30.0741459 L46,28.0742019 C46,24.835805 43.4344251,22.1966301 40.2249383,22.0783404 L40,22.0742019 Z M47,32.0742019 L39,32.0742019 C37.3431458,32.0742019 36,33.4173477 36,35.0742019 C36,36.6718828 37.24892,37.9778628 38.8237272,38.0691092 L39,38.0742019 L47,38.0742019 C47.5128358,38.0742019 47.9355072,37.6881617 47.9932723,37.190823 L48,37.0742019 L48,33.0742019 C48,32.5613661 47.6139598,32.1386947 47.1166211,32.0809296 L47,32.0742019 Z M42,34.0742019 C42.5522847,34.0742019 43,34.5219172 43,35.0742019 C43,35.6264867 42.5522847,36.0742019 42,36.0742019 C41.4477153,36.0742019 41,35.6264867 41,35.0742019 C41,34.5219172 41.4477153,34.0742019 42,34.0742019 Z M36,13.0742019 L32.304428,13.0748775 C30.89206,16.549868 27.4821595,19 23.5,19 L20,19 L20,20.074 L40,20.0742019 C40.6907281,20.0742019 41.3610104,20.1617406 42.0003581,20.3263291 L42,19.0742019 C42,15.835805 39.4344251,13.1966301 36.2249383,13.0783404 L36,13.0742019 Z M18,20.074 L18,2 L15,2 L15,20.074 L18,20.074 Z M13,13.074 L8,13.0742019 C4.76160306,13.0742019 2.12242824,15.6397768 2.00413847,18.8492636 L2,19.0742019 L2,20.0741459 L13,20.074 L13,13.074 Z M23.5,2 L20,2 L20,17 L23.5,17 C27.6421356,17 31,13.6421356 31,9.5 C31,5.43908272 27.7725256,2.13198248 23.7427311,2.00385357 L23.5,2 Z" id="poolETH-余额" fill="#FFFFFF" fill-rule="nonzero"></path>
    </g>
</svg>