<?xml version="1.0" encoding="UTF-8"?>
<svg width="50px" height="50px" viewBox="0 0 50 50" version="1.1" xmlns="http://www.w3.org/2000/svg" xmlns:xlink="http://www.w3.org/1999/xlink">
    <!-- Generator: Sketch 61.2 (89653) - https://sketch.com -->
    <title>已赚取收益</title>
    <desc>Created with Sketch.</desc>
    <g id="页面-1" stroke="none" stroke-width="1" fill="none" fill-rule="evenodd">
        <path d="M25,0 C38.8071187,0 50,11.1928813 50,25 C50,38.8071187 38.8071187,50 25,50 C11.1928813,50 0,38.8071187 0,25 C0,11.1928813 11.1928813,0 25,0 Z M25,2 C12.2974508,2 2,12.2974508 2,25 C2,37.7025492 12.2974508,48 25,48 C37.7025492,48 48,37.7025492 48,25 C48,12.2974508 37.7025492,2 25,2 Z M20.6943101,43.5102768 C21.9232133,43.7949341 23.1841529,43.9571903 24.4642146,43.9925988 L24.4089127,45.991834 C22.9952529,45.9527301 21.6016533,45.7734033 20.2429892,45.4586888 L20.6943101,43.5102768 Z M31.1017943,42.9992996 L31.7437046,44.8934884 C30.4193598,45.3422877 29.0492226,45.6580633 27.6493454,45.8343714 L27.399429,43.8500474 C28.6656086,43.6905779 29.9044356,43.4050654 31.1017943,42.9992996 Z M14.5755057,40.8875895 C15.6360299,41.5849281 16.763943,42.174617 17.9433185,42.6466831 L17.2001084,44.5034649 C15.8959386,43.9814477 14.648926,43.3294918 13.4766848,42.5586946 L14.5755057,40.8875895 Z M36.9466228,39.7750998 L38.2051135,41.3295133 C37.114622,42.2124015 35.9383953,42.9846286 34.6939307,43.6333188 L33.769466,41.8598011 C34.8953139,41.2729411 35.9596721,40.574159 36.9466228,39.7750998 Z M9.74010245,36.3217965 C10.4975345,37.340928 11.3553967,38.2826148 12.2997141,39.1318579 L10.9623436,40.6189492 C9.91924497,39.68087 8.97164804,38.6406803 8.1348884,37.5148128 L9.74010245,36.3217965 Z M25,10 L34.6462612,25.4822492 C34.8365586,25.7876766 34.8464755,26.1683071 34.6806729,26.4802126 L34.6102692,26.5936745 L25,40 L15.3897308,26.5936745 C15.1800711,26.3011992 15.1455484,25.9220078 15.2908235,25.6000285 L15.3537388,25.4822492 L25,10 Z M41.2930075,34.7801979 L43.0067605,35.8112413 C42.283529,37.0133636 41.4413141,38.1404742 40.4940078,39.1753611 L39.0187483,37.8249502 C39.8762552,36.8881649 40.6385443,35.8680165 41.2930075,34.7801979 Z M31.645,27.295 L25,30.618034 L18.354,27.295 L25,36.566 L31.645,27.295 Z M6.78375319,30.4191986 C7.14582058,31.6381916 7.62958301,32.8147536 8.22663917,33.9333352 L6.46224732,34.8751002 C5.80204539,33.6382154 5.2670104,32.336953 4.86653621,30.9886536 L6.78375319,30.4191986 Z M43.6636548,28.5787585 L45.6283099,28.9530982 C45.3646021,30.3371212 44.9628198,31.6848796 44.4305142,32.979718 L42.5807241,32.2192729 C43.0619878,31.0485945 43.4252148,29.8301681 43.6636548,28.5787585 Z M25,23.3426068 L19.96,25.861 L25,28.381 L30.038,25.861 L25,23.3426068 Z M4.04671688,23.588611 L6.0423213,23.7211365 C6.01379871,24.1506372 6.00000306,24.5774198 6.00005146,25.0436727 C6.00195397,25.8912956 6.05931315,26.7316598 6.17103689,27.5612327 L4.18893152,27.8281751 C4.06549964,26.9116668 4.00215642,25.9836311 4.00005146,25.0460236 C3.99999853,24.5338607 4.01522439,24.0628333 4.04671688,23.588611 Z M45.7225024,21.5784713 C45.9038247,22.6845965 45.9970212,23.8092834 45.9999337,24.947465 C46.0000011,25.2667844 45.9949977,25.5410351 45.9842488,25.8205585 L43.9857259,25.7437066 C43.9954615,25.490535 43.9999957,25.2419967 43.9999363,24.9502389 C43.9973011,23.9211783 43.9129277,22.9029665 43.7488443,21.9020044 L45.7225024,21.5784713 Z M25,13.782 L18.372,24.419 L25,21.1055728 L31.627,24.419 L25,13.782 Z M5.80338805,16.4735855 L7.63077309,17.2863979 C7.11613626,18.4434172 6.71832472,19.6510562 6.44454252,20.8942967 L4.4913424,20.4641697 C4.79416086,19.0890759 5.23419759,17.7532537 5.80338805,16.4735855 Z M43.2491498,14.6022638 C43.9444207,15.8200384 44.516384,17.1054317 44.9551167,18.4409855 L43.0550144,19.0651738 C42.6583381,17.8576447 42.1411363,16.695319 41.5122948,15.5938962 L43.2491498,14.6022638 Z M9.9159065,10.3893604 L11.3523541,11.7809848 C10.4685152,12.6932914 9.67744723,13.6917007 8.99218845,14.7606729 L7.30844463,13.6813181 C8.06562702,12.5001484 8.93956286,11.3971513 9.9159065,10.3893604 Z M38.585599,8.98598525 C39.6548374,9.8939353 40.6315287,10.9067288 41.4999731,12.0082374 L39.9293981,13.2465 C39.1432408,12.2493618 38.2590186,11.3324555 37.2910494,10.5104987 L38.585599,8.98598525 Z M15.8378788,6.09901856 L16.7115189,7.89811637 C15.569315,8.45276946 14.4857266,9.12109874 13.4767194,9.89192658 L12.2625806,8.30262898 C13.3775548,7.45084799 14.5751792,6.71218425 15.8378788,6.09901856 Z M32.2384032,5.28112705 C33.5577193,5.76556243 34.8230527,6.38155636 36.0168298,7.11853831 L34.9662062,8.82035794 C33.8863319,8.15369419 32.74199,7.59660178 31.5490333,7.15856389 L32.2384032,5.28112705 Z M22.9455117,4.09929089 L23.1389086,6.08991834 C21.8675357,6.21343699 20.6210536,6.46337981 19.4132504,6.83436756 L18.82601,4.92252323 C20.1618228,4.51221618 21.5402362,4.23581868 22.9455117,4.09929089 Z M25,4 C26.4149467,4 27.812466,4.14008083 29.1780685,4.41583516 L28.7822012,6.37626601 C27.5467301,6.12678892 26.2818177,6 25,6 L25,4 Z" id="已赚取收益" fill="#FFFFFF" fill-rule="nonzero"></path>
    </g>
</svg>